<?xml version="1.0" standalone="no"?>
<!DOCTYPE svg PUBLIC "-//W3C//DTD SVG 20010904//EN"
 "http://www.w3.org/TR/2001/REC-SVG-20010904/DTD/svg10.dtd">
<svg version="1.0" xmlns="http://www.w3.org/2000/svg"
 width="700.000000pt" height="700.000000pt" viewBox="0 0 700.000000 700.000000"
 preserveAspectRatio="xMidYMid meet">
<metadata>
Created by potrace 1.14, written by Peter Selinger 2001-2017
</metadata>
<g transform="translate(0.000000,700.000000) scale(0.100000,-0.100000)"
fill="#000000" stroke="none">
<path d="M3449 6962 c-13 -17 -35 -49 -49 -73 -14 -23 -34 -56 -45 -73 -26
-38 -184 -301 -205 -339 -8 -15 -88 -155 -177 -310 -88 -155 -172 -302 -184
-327 -13 -25 -27 -46 -31 -48 -4 -2 -8 -7 -8 -12 0 -4 -19 -43 -43 -86 -24
-44 -60 -108 -79 -144 -20 -36 -47 -85 -60 -110 -14 -25 -44 -81 -68 -125 -24
-44 -55 -102 -70 -130 -26 -48 -111 -209 -212 -400 -86 -164 -432 -857 -510
-1022 -43 -89 -118 -255 -168 -370 -50 -114 -113 -255 -140 -313 -56 -122 -98
-251 -116 -359 -3 -18 -8 -43 -10 -55 -16 -83 -21 -256 -10 -396 9 -123 14
-157 51 -324 32 -146 135 -411 218 -565 143 -265 294 -469 507 -681 270 -270
520 -438 865 -581 89 -37 281 -84 393 -96 85 -10 351 -9 415 0 367 57 685 203
1020 470 103 82 324 296 387 375 19 24 45 56 58 70 137 162 326 487 410 707
40 105 44 118 48 130 1 6 14 51 28 100 98 342 104 682 20 985 -16 60 -17 62
-64 170 -17 41 -53 122 -77 180 -51 116 -56 129 -141 315 -121 266 -160 349
-349 725 -210 419 -347 685 -483 935 -15 28 -47 86 -70 130 -23 44 -68 127
-100 185 -32 58 -74 137 -95 175 -21 39 -41 75 -45 80 -5 6 -25 42 -45 80 -70
131 -402 710 -450 785 -12 19 -63 103 -114 185 -50 83 -95 155 -99 162 -4 6
-23 14 -43 18 -32 6 -39 3 -60 -23z"/>
</g>
</svg>
